<?xml version="1.0" standalone="no"?><svg xmlns="http://www.w3.org/2000/svg" viewBox="0 0 1440 320"><path fill="#273036" fill-opacity="1" d="M0,64L15,64C30,64,60,64,90,74.7C120,85,150,107,180,106.7C210,107,240,85,270,90.7C300,96,330,128,360,149.3C390,171,420,181,450,181.3C480,181,510,171,540,165.3C570,160,600,160,630,154.7C660,149,690,139,720,122.7C750,107,780,85,810,85.3C840,85,870,107,900,128C930,149,960,171,990,160C1020,149,1050,107,1080,85.3C1110,64,1140,64,1170,58.7C1200,53,1230,43,1260,69.3C1290,96,1320,160,1350,154.7C1380,149,1410,75,1425,37.3L1440,0L1440,320L1425,320C1410,320,1380,320,1350,320C1320,320,1290,320,1260,320C1230,320,1200,320,1170,320C1140,320,1110,320,1080,320C1050,320,1020,320,990,320C960,320,930,320,900,320C870,320,840,320,810,320C780,320,750,320,720,320C690,320,660,320,630,320C600,320,570,320,540,320C510,320,480,320,450,320C420,320,390,320,360,320C330,320,300,320,270,320C240,320,210,320,180,320C150,320,120,320,90,320C60,320,30,320,15,320L0,320Z"></path></svg>